<svg xmlns="http://www.w3.org/2000/svg" width="52.941" height="12" viewBox="0 0 52.941 12"><defs><style>.a,.b{fill:#13717d;}.b{font-size:8px;font-family:SegoeUI-Semibold, Segoe UI;font-weight:600;}</style></defs><path class="a" d="M8.25,2.25A2.25,2.25,0,1,0,6,4.5,2.25,2.25,0,0,0,8.25,2.25Zm-2.775,3.4A11.5,11.5,0,0,0,.7,4.5a.648.648,0,0,0-.7.635v5.222a.645.645,0,0,0,.621.634,12.608,12.608,0,0,1,4.524.971.326.326,0,0,0,.48-.278V5.919a.312.312,0,0,0-.15-.269ZM11.3,4.5a11.493,11.493,0,0,0-4.776,1.15.318.318,0,0,0-.15.273v5.761a.327.327,0,0,0,.481.279,12.612,12.612,0,0,1,4.523-.97A.645.645,0,0,0,12,10.358V5.136A.649.649,0,0,0,11.3,4.5Z"/><text class="b" transform="translate(16.941 10)"><tspan x="0" y="0">4 Courses</tspan></text></svg>