<svg xmlns="http://www.w3.org/2000/svg" width="62.519" height="10.068" viewBox="0 0 62.519 10.068"><defs><style>.a{fill:#e99413;}</style></defs><path class="a" d="M6.137.349l-1.284,2.6L1.98,3.371a.629.629,0,0,0-.348,1.074L3.71,6.47,3.219,9.331a.629.629,0,0,0,.912.663L6.7,8.643l2.57,1.351a.629.629,0,0,0,.912-.663L9.691,6.47,11.77,4.445a.629.629,0,0,0-.348-1.074L8.549,2.953,7.265.349a.63.63,0,0,0-1.129,0Z" transform="translate(-1.441 0.001)"/><path class="a" d="M6.137.349l-1.284,2.6L1.98,3.371a.629.629,0,0,0-.348,1.074L3.71,6.47,3.219,9.331a.629.629,0,0,0,.912.663L6.7,8.643l2.57,1.351a.629.629,0,0,0,.912-.663L9.691,6.47,11.77,4.445a.629.629,0,0,0-.348-1.074L8.549,2.953,7.265.349a.63.63,0,0,0-1.129,0Z" transform="translate(11.559 0.001)"/><path class="a" d="M6.137.349l-1.284,2.6L1.98,3.371a.629.629,0,0,0-.348,1.074L3.71,6.47,3.219,9.331a.629.629,0,0,0,.912.663L6.7,8.643l2.57,1.351a.629.629,0,0,0,.912-.663L9.691,6.47,11.77,4.445a.629.629,0,0,0-.348-1.074L8.549,2.953,7.265.349a.63.63,0,0,0-1.129,0Z" transform="translate(24.559 0.001)"/><path class="a" d="M6.137.349l-1.284,2.6L1.98,3.371a.629.629,0,0,0-.348,1.074L3.71,6.47,3.219,9.331a.629.629,0,0,0,.912.663L6.7,8.643l2.57,1.351a.629.629,0,0,0,.912-.663L9.691,6.47,11.77,4.445a.629.629,0,0,0-.348-1.074L8.549,2.953,7.265.349a.63.63,0,0,0-1.129,0Z" transform="translate(37.559 0.001)"/><path class="a" d="M6.137.349l-1.284,2.6L1.98,3.371a.629.629,0,0,0-.348,1.074L3.71,6.47,3.219,9.331a.629.629,0,0,0,.912.663L6.7,8.643l2.57,1.351a.629.629,0,0,0,.912-.663L9.691,6.47,11.77,4.445a.629.629,0,0,0-.348-1.074L8.549,2.953,7.265.349a.63.63,0,0,0-1.129,0Z" transform="translate(50.559 0.001)"/></svg>